<?xml version="1.0" encoding="utf-8" ?><svg xmlns="http://www.w3.org/2000/svg" xmlns:xlink="http://www.w3.org/1999/xlink" width="512" height="452" viewBox="0 0 512 452"><path fill="#010303" transform="scale(0.470588 0.470833)" d="M0 0L1088 0L1088 960L0 960L0 0Z"/><path fill="#023737" transform="scale(0.470588 0.470833)" d="M142.156 245.509C142.934 240.132 165.552 233.165 168.68 225.554C169.842 222.727 185.28 216.13 189.589 213.609L231.713 188.874C235.243 186.787 239.15 182.798 242.201 181.022C248.267 177.327 254.245 173.213 260.36 169.632C264.932 167.328 269.87 165.193 274.588 163.22C282.99 159.707 290.144 154.924 297.752 150.074C303.557 146.374 310.143 143.155 315.684 139.021C318.979 136.562 321.736 132.15 325.474 130.008C332.988 125.501 341.411 122.729 348.862 118.293C350.853 117.107 355.057 111.544 357.498 110.078C365.371 105.349 374.372 102.369 382.303 98.0523C387.972 94.9671 393.462 88.8768 399.502 85.8767C404.244 83.5212 407.91 84.1214 412.615 81.0492C421.41 75.3064 427.499 67.6929 436.694 62.2242C444.249 57.7307 450.585 57.5723 458.157 53.5512C464.989 49.9228 469.255 44.7185 475.351 40.7553C477.597 39.2954 483.637 38.2813 487.427 36.1057C495.683 31.3661 502.325 26.8934 510.037 21.4626C511.75 20.2561 519.429 16.7441 521.992 15.2848C529.404 11.0643 536.537 6.82878 543.845 2.40726C547.024 2.37291 552.416 6.75066 555.545 8.6347L585.746 26.6217L633.867 55.4718C637.977 57.8849 642.407 59.8399 646.481 62.161C648.815 63.4913 651.242 66.472 653.948 68.0451C731.157 113.592 808.02 159.721 884.532 206.429L925.605 231.366C931.972 235.219 940.729 241.112 947.486 243.905C947.214 249.369 946.109 263.319 947.019 268.329C950.275 286.25 946.803 301.805 947.008 319.506L949.107 443.953C949.271 450.676 949.784 457.291 950.196 463.994C950.452 468.168 949.412 473.101 949.554 477.342C950.201 496.669 948.881 516.322 949.078 535.565L949.605 640.404C949.563 650.182 950.52 660.199 950.146 669.926C949.831 678.106 947.88 686.187 947.402 694.27C947.168 698.239 948.325 708.746 947.51 711.71C947.324 712.387 946.626 713.114 946.118 713.555C939.971 718.891 931.756 721.868 925.013 726.303C921.969 728.306 919.852 731.808 916.77 733.564C914.735 734.724 912.19 735.493 909.947 736.131C900.065 738.941 887.282 752.551 881.292 753.788C877.365 754.599 862.837 762.751 859.895 765.644C857.547 767.952 855.546 771.95 852.839 773.638C846.375 777.67 838.133 778.773 831.668 782.74C827.262 785.443 824.416 790.143 819.967 792.839C815.304 795.663 808.736 796.714 804.646 799.945C801.195 802.671 798.554 806.847 794.79 809.078C789.837 812.014 783.335 812.264 778.586 815.166C771.743 819.345 766.67 826.072 759.573 830.2C755.694 832.456 751.275 830.941 747.499 833.086C744.316 834.895 739.977 836.801 737.303 839.313C732.736 843.602 730.932 848.135 725.257 851.775C719.425 855.515 713.481 853.951 707.783 856.587C705.745 857.529 703.755 858.778 701.972 860.139C695.353 865.193 690.184 872.614 682.381 875.997C676.297 878.634 672.662 877.323 665.607 881.488C659.59 885.04 655.922 889.144 650.828 893.724C644.96 899 635.493 903.147 627.811 905.052C624.743 905.812 621.98 908.821 619.589 910.841C610.263 918.717 600.92 926.793 588.55 929.134C583.854 930.023 580.588 934.768 576.313 936.858C571.359 939.28 566.073 940.982 561.254 943.733C558.172 945.493 548.198 953.349 545.443 953.56C543.5 953.709 505.576 932.427 501.225 929.485C494.281 924.789 484.642 923.576 477.218 919.537C471.216 916.272 467.478 910.89 462.051 907.111C454.449 901.819 445.376 898.64 437.575 893.487C433.946 891.09 431.597 886.913 427.92 884.667C418.338 878.815 408.167 878.131 399.797 873.083C394.37 869.809 390.741 863.916 385.52 860.807C378.687 856.738 370.825 854.727 363.818 850.807C357.265 847.141 352.737 840.973 346.491 837.332C341.177 834.235 334.816 833.077 329.348 830.144C325.095 827.863 322.184 823.817 318.146 821.263C310.215 816.249 301.396 813.055 293.52 808.104C289.386 805.505 287.403 800.529 283.284 798.081C279.385 795.763 274.903 794.134 270.863 791.987C263.262 787.947 255.742 783.259 247.962 779.633C244.87 778.192 241.143 777.851 238.265 776.028C234.548 773.672 231.638 770.075 227.821 767.881C222.249 764.679 215.569 762.619 210.338 758.914C203.707 754.216 197.939 747.842 191.058 743.577C183.694 739.013 173.134 735.757 167.177 729.569C165.739 728.076 164.223 726.336 162.509 725.167C157.19 721.538 146.47 718.037 142.605 713.252C141.724 712.16 141.722 710.829 141.745 709.474C141.812 705.511 142.615 701.349 142.289 697.409C141.543 688.394 139.023 679.519 138.533 670.499C137.672 654.623 138.374 638.37 138.337 622.461C138.322 615.922 137.612 609.401 137.478 602.864C137.18 588.226 138.333 573.75 138.375 559.159L138.347 447.456C138.37 434.077 139.741 421.2 138.965 407.555C138.481 399.044 139.933 388.698 139.867 379.902L139.514 307.604C139.388 296.631 136.582 286.813 139.592 275.552C140.579 271.857 141.34 267.646 142.385 263.806C143.263 260.583 140.958 248.11 142.156 245.509Z"/><path fill="#6DFDEB" transform="scale(0.470588 0.470833)" d="M545.02 3.43115C555.787 10.4456 568.109 17.5073 579.209 24.1143L632.443 55.9526L812.026 164.09L907.366 221.804L931.125 236.088C934.633 238.205 941.265 242.449 944.844 243.961C946.363 246.366 945.724 288.078 945.722 294.088L945.73 381.46L945.928 712.358C918.898 729.525 888.092 746.952 860.35 763.658L639.948 895.708L581.615 930.519C569.628 937.615 556.213 945.146 544.733 952.796C524.469 940.218 502.839 927.884 482.248 915.509L306.747 810.556L201.986 747.738C183.708 736.726 161.719 722.649 143.229 712.519C142.635 677.754 143.289 641.202 143.232 606.209L143.161 375.387L143.17 282.792L143.166 258.489C143.162 255.788 143.256 247.849 142.835 245.529C145.3 242.997 179.515 222.858 184.976 219.589L291.769 155.505L462.208 52.6993L515.363 20.7209C524.725 15.1306 535.529 8.38702 545.02 3.43115Z"/><path fill="#021415" transform="scale(0.470588 0.470833)" d="M542.839 593.436C547.13 592.83 556.264 597.784 560.492 599.594L588.266 611.374L665.798 644.475C679.493 650.298 696.067 657.979 709.79 662.855C710.142 679.344 709.812 696.897 709.794 713.467L709.799 807.289C703.925 811.547 696.054 816.071 689.742 819.913L654.858 840.995L545.693 906.419L544.339 906.768C539.558 904.709 525.254 895.734 520.471 892.808L485.297 871.692L412.069 827.575C401.827 821.309 389.275 814.125 379.558 807.494C379.169 760.311 378.793 709.94 379.543 662.92C409.223 651.021 440.384 637.17 469.842 624.444L542.839 593.436Z"/><path fill="#010303" transform="scale(0.470588 0.470833)" d="M542.451 624.347C542.92 624.469 550.59 624.116 552.5 625.026C560.306 628.747 568.275 633.861 575.916 637.873C584.984 642.633 592.452 644.741 600.909 650.806C604.673 653.505 614.773 656.438 619.729 657.76C622.615 658.53 625.347 658.834 628.468 660.003C633.77 661.989 640.092 667.601 644.665 668.984C656.243 672.487 667.392 675.107 677.05 683.024C678.946 684.577 681.005 688.733 681.224 691.111C682.008 699.584 678.749 710.953 678.972 719.309C679.276 730.693 679.87 742.73 680.422 754.068C681.082 753.612 680.064 746.888 680.76 744.948C681.341 746.315 680.989 758.967 680.977 761.703C680.936 770.947 681.634 779.057 682.595 788.187L680.569 789.07C676.483 796.738 673.603 792.95 668.206 796.108C661.562 800.354 654.094 806.797 646.953 809.749C638.903 813.362 627.544 809.834 627.783 822.199C627.874 826.887 616.201 829.604 612.528 831.884C610.46 833.168 601.875 840.055 600.812 840.288C591.485 842.331 592.17 846.539 585.501 851.692C580.991 855.099 573.692 856.539 568.967 859.83C567.972 860.524 566.988 861.235 566.017 861.963C559.993 863.069 552.13 870.137 542.597 869.025C540.226 868.749 540.59 867.82 538.272 866.28C537.424 865.717 532.174 865.458 531.537 865.196C525.327 861.701 509.935 857.05 504.865 853.1C500.299 849.543 498.881 840.633 487.873 840.238C486.864 840.202 477.85 836.629 476.324 835.816C466.331 830.497 457.502 823.034 448.035 816.945C441.389 812.659 434.321 809.844 427.35 806.366C425.669 805.527 421.815 798.941 420.093 797.8C411.208 791.909 405.18 790.868 405.935 778.698C405.982 772.665 406.207 765.112 406.19 758.893L406.033 713.041C406.06 705.857 404.931 698.739 406.041 691.59C406.696 687.37 408.68 687.592 411.233 684.839C415.396 680.351 421.189 679.196 426.5 676.683C432.091 674.037 437.726 671.545 443.333 668.958L472.414 655.81C482.153 651.294 489.535 646.913 500.399 644.756C503.169 644.206 503.036 641.672 504.181 639.301C506.899 638.156 511.908 639.148 512.96 638.526C522.491 632.895 532 628.181 542.451 624.347Z"/><path fill="#021415" transform="scale(0.470588 0.470833)" d="M543.607 49.7829C546.336 49.6432 574.587 67.3011 579.332 70.1148L667.583 123.134C680.387 130.827 696.629 141.545 709.645 148.276C710.445 194.083 708.731 241.405 709.957 287.046C687.898 295.754 664.643 306.135 642.729 315.533C610.417 329.458 577.992 343.117 545.457 356.51C542.395 356.663 528.337 350.359 524.394 348.709L487.035 332.821C451.302 317.701 414.933 302.514 379.436 286.963L379.389 148.461C383.816 145.268 391.826 140.808 396.812 137.811C408.761 130.612 420.751 123.48 432.78 116.417L543.607 49.7829Z"/><path fill="#010303" transform="scale(0.470588 0.470833)" d="M544.307 84.3874C548.468 83.7363 553.535 88.8268 557.032 91.375C561.821 94.8647 566.891 97.9028 571.633 101.304C579.369 106.85 586.292 114.155 594.285 119.531C596.426 120.977 602.679 123.125 605.658 124.54C618.577 130.672 630.053 137.955 642.557 144.733C647.327 147.319 656.468 156.606 661.532 160.098C666.472 163.505 676.173 168.272 679.729 172.396C679.729 181.591 677.193 189.385 677.321 198.546L677.65 241.415C677.688 244.899 679.737 262.909 676.098 264.406C666.89 268.194 658.422 273.395 649.274 277.149C644.607 279.063 637.6 279.52 632.759 281.394C629.082 282.906 625.369 288.026 621.305 288.473C614.403 289.496 604.955 283.083 598.101 285.385C592.886 287.137 585.888 291.831 580.72 294.222C577.271 295.817 578.505 301.596 577.458 304.708C573.688 315.912 559.097 313.809 552.275 317.586L550.649 318.485L549.855 318.941C548.481 320.255 546.804 320.911 545.007 321.909C540.194 324.58 530.802 319.274 525.913 317.608C524.869 317.253 520.761 311.489 518.85 310.531C514.086 308.144 509.069 307.803 504.255 305.804C503.542 301.906 500.748 303.206 497.484 301.327C494.416 299.56 489.348 300.503 486.21 298.919C481.694 296.639 477.815 292.485 473.145 290.446C459.086 284.266 445.165 279.244 430.799 273.923C429.723 273.524 413.965 263.32 412.062 263.125C409.122 262.822 409.44 248.115 409.174 243.883C408.479 229.786 408.06 214.681 409.521 200.646C410.319 192.976 408.825 189.066 408.616 182.819C408.39 176.047 411.413 165.226 419.226 164.348C424.03 163.809 428.618 157.285 431.831 154.208C433.15 152.916 435.684 151.857 437.315 150.953C444.528 146.956 450.56 141.959 459.046 141.059C461.128 140.822 466.282 138.303 468.161 137.128C470.27 135.809 472.851 130.921 474.996 129.286C482.296 125.392 489.082 121.031 496.158 116.765C498.786 115.158 500.737 112.596 503.372 110.688L503.892 110.318L504.113 108.191C505.909 106.522 515.111 99.1631 516.958 98.7573C526.148 96.7388 536.486 85.8213 544.307 84.3874Z"/><path fill="#021415" transform="scale(0.470588 0.470833)" d="M722.436 324.119C732.978 337.503 745.825 356.281 756.108 370.425C781.022 404.69 806.131 438.812 831.432 472.791C808.731 504.872 785.825 536.807 762.717 568.595C750.024 586.068 735.239 607.663 721.777 624.437C711.498 620.85 696.319 613.866 686.007 609.472C645.9 591.69 603.71 575.37 563.199 557.91L563.267 391.928C577.348 386.885 594.759 378.781 608.853 372.837C646.767 356.849 684.424 339.881 722.436 324.119Z"/><path fill="#010303" transform="scale(0.470588 0.470833)" d="M709.985 364.251C710.59 364.506 712.274 364.945 712.652 365.499C720.125 376.454 726.806 387.09 732.063 399.314C735.107 403.518 739.948 406.834 743.176 410.84C745.943 414.275 748.266 418.201 751.071 421.766C754.047 425.549 757.944 428.982 760.625 432.692C766.204 440.411 769.126 450.002 774.563 457.842C776.73 460.991 785.882 467.813 785.909 471.119C785.962 477.802 778.39 489.799 773.846 494.707C772.991 495.554 766.446 499.216 766.23 499.824C764.194 505.54 760.749 505.781 757.239 509.006C755.474 510.628 754.739 518.086 752.735 520.098C752.177 520.176 749.553 520.584 749.416 520.772C747.408 523.529 746.667 529.768 744.173 532.298C739.899 536.631 732.867 539.436 728.015 542.923C726.014 544.362 722.721 550.826 720.287 552.298C716.135 554.809 709.911 556.627 706.171 559.461C700.876 563.473 703.837 568.476 703.417 573.698C703.288 575.31 702.218 576.254 700.996 577.25C694.342 575.991 695.154 573.419 686.046 575.352C683.212 575.954 672.665 566.967 669.977 565.342C665.963 562.915 658.867 562.313 655.446 558.508C648.037 554.363 641.428 554.719 633.088 551.179C623.275 547.013 603.056 539.27 595.476 532.198C594.269 531.072 593.348 515.678 592.615 512.223C592.657 510.9 592.206 508.343 592.31 507.657C592.813 504.355 593.499 500.886 593.901 497.563C594.947 488.903 596.462 480.355 596.784 471.639C596.889 468.794 597.122 459.359 598.427 457.335C604.332 456.387 613.145 479.339 617.499 457.681C618.328 453.557 624.265 437.471 628.764 438.33C639.847 440.446 638.559 457.164 645.344 464.041C657.435 473.995 661.645 465.885 665.861 455.329C673.991 434.971 663.354 434.455 644.552 436.682C643.549 437.692 643.8 437.551 642.617 438.285C635.628 435.347 638 431.869 636.71 425.727C636.281 423.689 633.165 419.818 631.439 419.548C621.738 418.028 605.743 427.155 597.185 430.307C595.107 429.269 591.563 418.509 592.272 417.39C593.967 414.714 599.534 411.148 602.66 410.105C605.982 408.995 611.044 408.864 614.572 408.404C622.426 403.679 633.704 400.785 641.504 397.159C645.395 395.35 649.489 390.679 653.729 388.058C663.2 381.778 673.397 377.743 683.922 373.608C688.066 371.98 690.864 372.523 694.624 371.532C699.561 370.232 704.711 366.149 709.985 364.251Z"/><path fill="#021415" transform="scale(0.470588 0.470833)" d="M366.64 324.316C380.29 328.941 402.168 339.366 416.171 345.309L526.31 392.655L525.964 493.584C525.94 514.542 525.569 537.156 526.319 558.023C514.33 562.429 499.837 569.038 487.8 574.072L403.933 609.348C392.276 614.316 379.171 620.177 367.363 624.382C364.191 619.046 355.76 608.391 351.831 603.023C341.866 589.176 331.816 575.39 321.681 561.667C300.137 532.481 279.424 502.377 257.979 473.122C265.316 463.968 273.729 451.647 280.69 442.042L315.634 394.384L346.927 351.921C353.421 343.117 360.832 333.489 366.64 324.316Z"/><path fill="#021415" transform="scale(0.470588 0.470833)" d="M181.806 492.52L223.219 492.438C227.732 498.262 232.73 505.193 236.978 511.29C271.316 560.575 308.777 608.255 343.428 657.178C344.446 667.086 343.779 690.078 343.775 700.735L343.775 785.912C337.804 782.556 321.223 773.463 316.086 769.51C302.581 762.597 283.325 749.851 269.541 741.765L217.566 710.894C206.111 704.081 192.736 696.459 181.779 689.08C181.144 662.612 181.595 634.369 181.604 607.781L181.806 492.52Z"/><path fill="#086460" transform="scale(0.470588 0.470833)" d="M343.428 657.178C344.446 667.086 343.779 690.078 343.775 700.735L343.775 785.912C337.804 782.556 321.223 773.463 316.086 769.51C319.423 769.587 327.238 775.018 330.477 777.022C334.967 775.145 338.923 773.256 342.927 770.493C342.93 766.403 342.471 762.273 342.426 758.165C342.359 751.951 342.86 745.741 342.823 739.527C342.758 728.536 341.288 662.26 343.428 657.178Z"/><path fill="#021415" transform="scale(0.470588 0.470833)" d="M866.413 492.065C879.914 492.315 893.907 492.094 907.489 492.181L907.495 689.153C895.436 697.419 876.408 708.048 863.289 715.897L771.625 770.529C764.474 774.738 753.145 781.872 745.95 785.22C745.669 759.159 745.58 733.096 745.681 707.034C745.684 690.835 745.381 673.315 745.903 657.218C748.505 653.144 754.206 646.046 757.26 641.943C764.287 632.455 771.252 622.921 778.156 613.344L866.413 492.065Z"/><path fill="#021415" transform="scale(0.470588 0.470833)" d="M343.167 170.62C344.105 172.73 343.611 278.916 343.526 290.072C341.264 293.901 336.862 299.655 334.159 303.385L314.472 330.353C284.806 371.685 253.347 412.187 223.995 453.706C210.375 453.984 196.051 453.723 182.38 453.672C180.8 452.008 181.471 286.273 181.588 267.943C196.806 259.429 213.859 248.521 228.981 239.366L300.877 196.09C314.384 187.872 329.452 178.215 343.167 170.62Z"/><path fill="#010303" transform="scale(0.470588 0.470833)" d="M303.874 233.417C313.799 232.576 309.598 242.851 310.559 247.885C313.657 264.112 316.737 270.953 305.604 284.821C303.025 288.033 299.044 298.703 294.72 302.773C292.593 305.702 289.183 313.461 286.069 314.809C275.412 319.421 279.489 321.046 277.09 327.986L276.709 325.555C275.693 326.948 273.975 329.381 272.612 330.332C268.063 333.505 267.82 332.702 265.885 337.87C264.813 340.735 256.467 347.475 255.246 349.681C252.109 355.35 252.395 358.045 245.866 361.597C242.872 369.203 239.688 377.858 234.416 384.243C232.233 387.202 219.934 399.753 216.089 395.986C215.161 393.15 215.373 388.236 215.281 385.052C215.239 379.557 214.068 373.353 214.366 367.903C215.13 353.925 216.53 340.23 215.608 326.202C215.345 322.2 216.117 317.644 215.775 313.552C215.256 307.35 214.45 301.141 213.725 294.956C213.394 291.831 212.067 290.442 212.481 287.483C217.507 279.922 220.844 279.4 228.649 275.137C233.165 272.624 237.606 269.978 241.966 267.203C246.605 264.297 249.385 260.194 254.14 257.854C265.896 252.068 277.861 247.216 289.96 242.331C294.731 240.404 297.443 235.282 303.874 233.417Z"/><path fill="#021415" transform="scale(0.470588 0.470833)" d="M745.781 170.851C758.57 177.874 772.839 186.694 785.505 194.25L866.848 243.208C875.31 248.261 883.731 253.383 892.11 258.572C896.637 261.362 902.822 265.453 907.454 267.753C907.801 287.03 907.432 307.149 907.455 326.501L907.381 453.502C893.567 453.677 879.751 453.663 865.937 453.461C857.577 443.159 847.947 429.464 839.895 418.535L805.175 371.735C791.992 354.002 779.013 336.118 766.239 318.088C759.561 308.799 752.173 299.034 745.939 289.578C745.069 275.796 745.575 256.907 745.566 242.726C745.428 218.768 745.499 194.808 745.781 170.851Z"/><path fill="#010303" transform="scale(0.470588 0.470833)" d="M781.324 231.484C783.977 231.873 787.286 233.069 789.692 234.282C793.842 236.391 796.997 240.922 800.554 243.463C807.664 248.543 816.357 252.688 823.053 258.409C825.876 261.084 830.616 262.866 834.304 264.328C845.408 268.731 855.342 273.123 864.883 280.496C868.117 282.994 872.154 285.568 874.233 289.277C876.093 292.597 873.148 296.524 872.273 299.668C871.298 304.157 868.213 303.22 866.321 306.497C864.705 306.502 862.135 305.178 860.419 304.634C851.36 299.943 841.016 297.052 831.138 294.715C830.078 294.464 827.634 284.556 826.278 283.414C822.292 280.058 816.491 279.907 812.319 276.935C808.117 273.285 806.496 265.771 799.549 265.203C795.625 266.317 794.677 269.61 792.416 272.708C785.579 282.985 778.144 268.979 779.076 262.533C780.064 255.694 777.251 236.006 781.324 231.484Z"/><path fill="#010303" transform="scale(0.470588 0.470833)" d="M795.769 280.271C797.417 282.039 810.279 290.802 813.181 291.184C816.56 291.628 824.752 292.217 827.848 293.476C830.792 298.402 823.195 307.506 823.165 314.689C822.277 322.977 830.935 324.58 835.47 329.904C838.483 333.441 837.531 337.471 833.855 340.321C832.15 341.553 829.528 343.67 827.382 343.257C819.858 341.812 819.235 329.512 815.677 325.213C811.396 320.04 803.292 315.757 799.838 309.315C798.34 306.868 797.934 299.279 796.537 297.207C792.221 290.807 786.808 286.774 795.769 280.271Z"/><path fill="#010303" transform="scale(0.470588 0.470833)" d="M866.002 358.925L867.13 359.24C871.259 364.395 872.615 387.518 874.329 395.027C874.716 396.72 874.031 401.36 871.544 401.807C869.597 400.783 866.007 397.791 865.078 395.706C864.631 394.703 864.885 394.923 864.062 394.156C862.85 390.612 861.234 387.22 859.247 384.045C854.906 377.078 847.462 371.141 853.109 362.434C855.809 358.27 860.609 359.899 865.229 359.07L866.002 358.925Z"/></svg>