<svg version="1.1" id="Layer_1" xmlns="http://www.w3.org/2000/svg" xmlns:xlink="http://www.w3.org/1999/xlink" x="0px" y="0px"
	 width="100%" viewBox="0 0 1024 1024" enable-background="new 0 0 1024 1024" xml:space="preserve">
<path fill="#000000" opacity="1.000000" stroke="none" 
	d="
M158.257172,485.330933 
	C167.141983,461.291199 179.941605,439.961273 195.773514,420.383636 
	C200.383255,414.683319 204.936142,408.936737 209.574295,403.259674 
	C212.232468,400.006134 212.150635,396.926544 210.239014,393.158752 
	C201.573669,376.079559 193.126862,358.888611 184.702637,341.688324 
	C180.421661,332.947601 182.125595,324.835175 187.949448,317.423920 
	C195.793198,307.442230 204.997559,298.681549 213.837723,289.644745 
	C249.705902,252.978729 287.847900,218.958588 332.451324,193.059616 
	C365.875793,173.651733 400.999420,158.263794 439.284271,151.039307 
	C462.485779,146.661102 485.791992,146.199341 509.353333,147.373123 
	C534.078186,148.604874 557.851440,153.957977 580.888916,162.160416 
	C614.801453,174.234924 646.300293,191.112701 674.905151,213.220245 
	C686.882019,222.476654 698.995850,231.529434 709.616638,242.663528 
	C714.551697,237.990677 718.956360,233.482498 723.710999,229.379852 
	C739.492310,215.762512 758.108826,208.532806 778.650330,206.716888 
	C819.469299,203.108398 853.171753,217.836197 879.507690,248.663910 
	C895.137024,266.958984 900.632019,288.921692 898.591492,312.964020 
	C897.577148,324.916107 894.703979,336.206757 889.970886,347.135834 
	C889.049377,349.263580 888.380066,351.516663 887.767700,353.759247 
	C885.606079,361.675507 883.764465,363.281067 876.051331,360.759338 
	C870.471680,358.935089 866.629578,360.419525 862.393250,363.615326 
	C849.391479,373.423615 835.102722,380.808197 819.564026,385.802460 
	C813.827148,387.646332 808.031006,388.815887 801.049194,388.485077 
	C803.743713,394.176453 806.516052,398.744141 809.840759,403.069824 
	C824.390076,421.999817 838.331482,441.365753 846.235413,464.194580 
	C860.258362,504.696930 859.343384,544.712891 838.049988,582.392334 
	C817.798645,618.227783 788.768616,644.327271 747.358093,653.814392 
	C718.278931,660.476379 682.579834,646.666138 675.240051,608.588867 
	C672.148010,592.547852 674.554382,576.783325 678.286987,561.157104 
	C680.803589,550.621643 683.369263,540.109863 682.663147,529.143738 
	C682.548584,527.365784 683.058228,525.418823 680.997192,523.654724 
	C659.693298,540.336182 638.833130,557.981445 612.494568,567.531311 
	C618.934021,579.797363 623.747681,592.232300 627.048279,605.097473 
	C636.059021,640.219727 634.629211,674.529358 618.421265,707.705627 
	C606.216431,732.687744 589.538391,754.178833 568.068787,771.538452 
	C547.151794,788.451233 523.469360,799.540039 495.638855,798.240540 
	C476.198944,797.332886 459.369324,790.276062 448.078705,773.901184 
	C435.358063,755.452332 433.914734,735.267639 441.743317,714.359253 
	C444.668701,706.546143 448.111755,698.972046 452.170410,691.680847 
	C462.632050,672.887024 470.286072,653.112000 472.395935,631.549744 
	C473.270447,622.612610 473.386108,613.601501 473.862000,604.624878 
	C473.993591,602.142700 473.387207,600.569092 470.415436,600.304749 
	C448.952667,598.395508 428.002380,593.926758 407.537994,587.220825 
	C378.731720,577.781433 351.546967,564.997070 326.590210,547.664368 
	C326.072479,547.304810 325.464539,547.075134 324.336365,546.496277 
	C321.909576,552.939209 318.601257,558.701904 315.820312,564.679199 
	C307.889587,581.725159 297.828979,597.376404 285.351044,611.335693 
	C267.453003,631.358582 246.579330,647.118530 219.316711,651.702576 
	C185.712357,657.352844 160.568237,637.679565 150.870682,610.816589 
	C145.313843,595.423645 144.559158,579.326843 145.446579,563.039978 
	C146.333481,546.762756 146.641907,530.444275 149.675415,514.376648 
	C151.529602,504.555511 154.263306,494.947235 158.257172,485.330933 
M562.398438,526.064819 
	C558.942871,520.764832 555.142090,515.652222 552.134033,510.109375 
	C549.414673,505.098602 546.078735,504.748444 541.388184,506.789368 
	C528.718872,512.302002 516.079102,517.908447 503.217560,522.940796 
	C498.075256,524.952820 496.549133,528.399841 496.384125,533.211365 
	C496.018921,543.862122 495.505951,554.511353 495.366760,565.165344 
	C495.166504,580.493042 495.598206,595.835693 495.102509,611.150757 
	C494.635315,625.585144 494.469543,640.144104 490.344910,654.176025 
	C487.430176,664.091980 483.179871,673.532776 478.929993,682.926270 
	C472.681122,696.738281 466.152039,710.464539 462.042267,725.073914 
	C458.670471,737.060059 457.895996,749.275757 466.187408,759.907715 
	C477.083191,773.879333 492.259186,777.812378 509.011261,776.210388 
	C523.942749,774.782410 536.957275,768.004944 549.339417,759.836548 
	C570.257019,746.037231 586.481812,727.970886 597.642212,705.664917 
	C607.888306,685.186340 611.363892,663.229431 610.914429,640.302185 
	C610.496155,618.961609 604.747131,599.239441 595.629089,580.358215 
	C586.477112,561.406677 573.845215,544.509155 562.398438,526.064819 
M699.516357,560.870972 
	C697.064026,572.627136 695.927490,584.469055 696.086426,596.517212 
	C696.453247,624.330933 719.029907,635.430603 739.835693,632.281799 
	C774.000244,627.111328 798.704468,607.091064 816.182068,578.669617 
	C835.392883,547.429504 838.494324,513.294250 827.838379,478.245087 
	C820.421875,453.850891 807.459900,432.494232 790.568665,413.377594 
	C785.131226,407.223663 779.574036,400.923004 777.463745,392.437775 
	C776.588196,388.917542 772.468506,389.891022 769.845337,388.945862 
	C767.332947,388.040588 767.020447,390.785522 766.537476,392.352661 
	C764.531494,398.861115 763.071228,405.554840 760.783142,411.956268 
	C749.781433,442.736023 732.578857,469.905731 711.803528,494.931854 
	C709.822144,497.318604 708.574097,499.788330 708.104004,502.901306 
	C705.229370,521.936157 704.319580,541.260620 699.516357,560.870972 
M436.686432,267.259796 
	C429.692719,271.116974 422.847382,275.282501 415.661255,278.739716 
	C409.201233,281.847595 407.079529,286.571503 407.278351,293.491425 
	C407.861053,313.771881 408.050690,334.064026 408.321411,354.352570 
	C408.352692,356.698517 408.872101,358.539032 410.965546,359.857391 
	C415.752045,362.871826 420.366547,366.174622 425.253113,369.012115 
	C444.389252,380.124023 464.166229,390.043030 483.765594,400.295135 
	C487.464691,402.230103 490.436646,402.012115 493.967529,399.998718 
	C507.697876,392.169220 521.475403,384.414032 535.391785,376.921814 
	C547.113403,370.611267 558.840820,364.325165 570.357422,357.641571 
	C573.659546,355.725220 574.902405,353.310242 574.704712,349.525696 
	C573.645020,329.237305 573.564148,308.925598 573.698059,288.615723 
	C573.717102,285.718231 572.610474,283.847504 570.176208,282.599762 
	C565.883057,280.399261 561.607483,278.159790 557.260864,276.069061 
	C536.097290,265.889465 516.158936,253.439072 495.327820,242.635620 
	C490.957550,240.369110 487.431671,240.518082 483.181580,242.550873 
	C467.550720,250.027008 452.677368,258.904419 436.686432,267.259796 
M278.648071,588.129517 
	C289.535400,571.880737 300.079041,555.556946 300.285645,534.876831 
	C300.324005,531.036499 299.785492,528.250732 296.909729,525.626587 
	C283.978333,513.826721 271.771942,501.297638 260.847168,487.609589 
	C246.613281,469.775482 232.806183,451.627625 223.278870,430.665680 
	C222.478119,428.903870 221.841614,426.923187 219.822113,425.671021 
	C216.136444,427.775085 213.868607,431.335785 211.377960,434.557251 
	C195.678391,454.863525 182.562393,476.723938 175.739471,501.596710 
	C167.287933,532.406616 165.441528,563.893188 170.457932,595.489319 
	C172.923676,611.019836 181.574631,622.638916 197.165848,627.408142 
	C211.541428,631.805542 225.573090,629.663879 238.685471,622.555054 
	C254.245880,614.119019 267.500183,602.861267 278.648071,588.129517 
M799.962830,227.484787 
	C784.237915,226.656998 768.969482,227.444534 753.987183,233.808807 
	C713.180847,251.142883 705.284180,290.420410 718.774963,325.429077 
	C729.259216,352.635895 752.659058,363.982605 780.162415,367.664368 
	C803.684387,370.813171 824.403687,362.692444 843.945190,350.566406 
	C853.418457,344.688049 862.642273,338.397522 872.530884,333.206055 
	C873.764648,332.558319 875.055603,331.853210 875.117981,330.409821 
	C875.434387,323.080536 878.854919,315.717560 874.979248,308.420593 
	C874.178406,306.912659 873.971069,305.593689 875.858887,304.711884 
	C877.175171,304.097076 877.075500,302.932526 877.000916,301.713989 
	C876.148682,287.795013 872.570007,274.751923 863.908264,263.589478 
	C847.882874,242.937546 826.300049,231.857422 799.962830,227.484787 
M690.806519,307.109283 
	C690.169373,292.853760 691.132935,278.811676 696.710388,265.453491 
	C697.696228,263.092316 697.085449,261.437622 695.659485,259.543030 
	C689.430115,251.266495 680.930603,245.624634 672.810181,239.530594 
	C671.570496,238.600235 670.276733,238.451233 669.173584,239.489563 
	C664.450012,243.935532 658.305298,245.914017 652.775696,248.918716 
	C634.765808,258.704987 617.864441,270.396759 599.592712,279.708405 
	C596.640564,281.212891 596.310730,283.424713 596.316528,286.265930 
	C596.358154,306.763031 596.571655,327.265747 596.149658,347.754700 
	C595.995422,355.241608 598.232910,361.261169 602.656555,367.051697 
	C616.615723,385.324097 631.174744,403.102570 645.967285,420.699005 
	C649.755371,425.205078 649.934875,425.257416 654.280579,420.853699 
	C661.533508,413.504089 668.680725,406.050110 676.562988,399.340393 
	C689.535095,388.298065 701.320618,376.108246 711.738159,362.600525 
	C713.802612,359.923645 714.460205,357.852356 712.018677,354.816315 
	C700.962769,341.068665 693.688477,325.538208 690.806519,307.109283 
M351.719543,263.851990 
	C337.088043,253.800797 320.569519,246.661682 307.122040,234.528732 
	C303.975067,237.158066 301.344788,240.112534 298.083405,241.941879 
	C287.351746,247.961319 284.527161,257.862610 284.449799,268.971802 
	C284.263092,295.776337 284.435455,322.583282 284.272064,349.388123 
	C284.243378,354.098694 285.475769,358.076477 287.901367,362.057098 
	C293.374390,371.038788 300.173828,379.057495 306.034058,387.750824 
	C314.490234,400.295135 323.858246,412.158508 333.163086,424.278137 
	C336.672028,422.662659 339.089233,420.158112 341.293152,417.498291 
	C356.589630,399.037811 371.240875,380.081787 384.995422,360.436890 
	C386.328583,358.532867 386.781891,356.587402 386.674072,354.353699 
	C386.225922,345.071045 384.813202,335.673279 385.379486,326.545166 
	C386.161316,313.942535 385.071899,301.302795 386.676483,288.766846 
	C387.121918,285.286835 385.646454,283.262238 382.673431,281.599670 
	C372.505341,275.913483 362.449585,270.026337 351.719543,263.851990 
M562.769958,384.298615 
	C544.033691,394.788147 525.340088,405.355194 506.529938,415.710388 
	C502.064423,418.168671 500.216644,421.349365 500.260529,426.512512 
	C500.461517,450.164276 500.331696,473.818787 500.370819,497.472198 
	C500.373413,499.033783 499.727020,500.821991 501.659515,502.443420 
	C546.670471,482.900085 592.669739,465.070038 634.861694,438.657135 
	C633.906433,437.160431 633.481689,436.242035 632.836426,435.520813 
	C616.182251,416.905426 600.926331,397.134338 585.177795,377.772247 
	C583.319336,375.487366 581.640869,375.234558 579.191589,376.436340 
	C573.964111,379.001312 568.674255,381.438965 562.769958,384.298615 
M361.884216,447.548798 
	C399.491302,468.351685 438.146576,486.948761 478.168030,503.748077 
	C478.442413,502.010468 478.678894,501.209625 478.679443,500.408661 
	C478.697083,474.940033 478.628815,449.471069 478.761108,424.003143 
	C478.780029,420.370544 476.686188,419.157898 474.034027,417.874603 
	C450.349365,406.414368 428.227875,392.111725 405.028748,379.754608 
	C400.547943,377.367859 398.116394,377.167511 394.577026,381.129425 
	C380.027924,397.415680 367.858551,415.565277 353.952454,432.345581 
	C352.109283,434.569763 349.488831,436.373749 348.859650,439.904633 
	C352.990509,442.330719 357.120270,444.756165 361.884216,447.548798 
M435.565521,173.206161 
	C396.457794,180.717163 362.137115,199.415512 328.273041,219.163193 
	C325.134705,220.993332 325.175018,223.405365 328.008575,225.470352 
	C330.690094,227.424545 333.692200,228.933273 336.426392,230.821701 
	C354.688599,243.434860 374.666748,253.045288 393.933472,263.903900 
	C397.413147,265.865051 399.988037,265.252533 403.129303,263.532013 
	C426.346771,250.815353 449.536194,238.040710 472.961670,225.716187 
	C477.814178,223.163177 480.060059,220.492081 478.904633,215.069016 
	C478.497223,213.156860 478.837921,211.085419 478.836182,209.086700 
	C478.825409,196.759415 478.804199,184.432129 478.811493,172.104843 
	C478.813110,169.395950 478.722351,166.947876 474.850861,167.537247 
	C462.048828,169.486221 449.098969,170.403641 435.565521,173.206161 
M527.454712,171.282516 
	C519.873840,170.293976 512.294373,169.293869 504.711334,168.322403 
	C501.522583,167.913895 500.275909,169.246475 500.300232,172.557281 
	C500.416412,188.385742 500.370819,204.215637 500.320129,220.044815 
	C500.313110,222.231476 500.770172,223.785507 502.976990,224.840851 
	C529.135742,237.350632 554.164124,252.012115 579.871643,265.384430 
	C582.081238,266.533783 583.738342,266.495789 585.852600,265.258209 
	C594.187683,260.379181 602.372009,255.144211 611.073547,251.012619 
	C624.565796,244.606262 636.452576,235.759750 648.802979,227.609360 
	C653.733398,224.355606 653.588440,222.544281 648.333923,219.420609 
	C638.311157,213.462402 628.285095,207.491241 618.047607,201.916397 
	C589.910645,186.594467 560.389832,175.218094 527.454712,171.282516 
M676.474243,497.935089 
	C667.719604,485.370941 658.977356,472.798218 650.204895,460.246521 
	C646.113647,454.392792 645.867432,454.360199 639.463196,458.113281 
	C618.913391,470.156128 598.066528,481.623962 576.222900,491.201111 
	C569.204529,494.278229 568.567871,495.407104 572.474487,501.985352 
	C580.204285,515.001587 586.508423,528.879578 595.840454,540.937805 
	C598.173584,543.952454 599.729919,548.642029 602.715637,549.802368 
	C606.340515,551.211060 609.413513,546.474915 612.913879,544.735657 
	C632.256897,535.124878 649.691284,522.567261 666.617615,509.295013 
	C670.436218,506.300751 674.956299,503.736877 676.474243,497.935089 
M374.308594,550.091003 
	C378.014618,552.173706 381.720673,554.256409 385.165436,556.192322 
	C386.682678,555.303955 386.681183,554.226746 386.931122,553.288208 
	C389.290680,544.427734 389.890961,535.296143 391.077789,526.255249 
	C392.568787,514.896851 394.966583,503.707581 397.377441,492.522034 
	C397.970001,489.772797 397.512817,487.815460 394.694061,486.396729 
	C376.425598,477.201874 358.018127,468.258820 340.380371,457.874176 
	C337.364227,456.098389 335.730225,456.853821 333.715820,459.269318 
	C323.687347,471.294708 314.869720,484.202789 305.803986,496.936646 
	C303.510345,500.158356 303.926636,502.243713 306.744171,504.969238 
	C326.358765,523.943359 349.368469,537.786438 374.308594,550.091003 
M310.378815,427.092926 
	C306.457031,422.132294 302.467590,417.223419 298.627258,412.200531 
	C290.134827,401.092987 281.716980,389.928375 273.269745,378.786285 
	C271.797363,376.844208 270.363831,375.538361 268.135406,378.065979 
	C261.207336,385.924011 254.111267,393.700684 246.841492,401.164673 
	C238.929626,409.287903 240.080078,415.487671 245.141251,424.500580 
	C257.098236,445.793396 271.038422,465.569977 286.483734,484.378723 
	C287.082062,485.107361 287.505707,486.183258 289.672882,485.803375 
	C289.718292,485.734314 290.086731,484.955719 290.646423,484.355530 
	C300.009369,474.315826 306.913483,462.459686 314.704681,451.290863 
	C322.532745,440.069153 322.067169,439.566040 312.559052,429.449371 
	C311.988861,428.842682 311.425018,428.230103 310.378815,427.092926 
M408.920441,564.459106 
	C411.128357,566.418457 413.902466,567.112305 416.655182,567.683350 
	C424.458893,569.302124 432.265533,570.933594 440.119263,572.278259 
	C451.360840,574.203003 462.645172,575.877869 473.855743,577.650635 
	C475.177551,575.037170 474.787598,572.847961 474.789398,570.726868 
	C474.799835,558.410767 474.048737,546.037292 475.015472,533.798584 
	C475.672821,525.476990 472.352142,521.720825 465.298798,519.034912 
	C449.910797,513.175232 434.878723,506.443573 419.890411,499.626587 
	C419.000610,499.221863 418.042542,498.812988 416.842957,499.437744 
	C410.756165,520.373901 411.102448,542.267029 408.920441,564.459106 
M676.371033,463.177521 
	C681.338745,470.571014 686.306458,477.964539 691.184998,485.225311 
	C693.426758,484.642639 694.526062,483.354095 695.568237,482.072968 
	C714.854370,458.365479 730.463013,432.565826 739.781372,403.289673 
	C741.565430,397.684326 742.608521,391.791016 741.253540,385.959473 
	C739.011108,385.253784 737.564392,386.227783 736.067810,386.864349 
	C708.790039,398.467682 686.399963,417.005737 664.943909,436.897552 
	C662.212097,439.430206 662.016113,441.854614 663.982544,444.765717 
	C667.989563,450.697662 671.984741,456.637634 676.371033,463.177521 
M226.361252,306.846619 
	C221.566605,312.462769 215.599457,317.092560 211.622269,323.805817 
	C215.894928,324.406677 220.738037,322.398438 223.171661,326.473511 
	C226.030243,331.260071 230.562271,333.052673 235.147095,334.813934 
	C242.169662,337.511688 248.957169,340.554352 255.249588,344.727936 
	C257.110260,345.962128 258.912415,347.642181 261.390778,347.695770 
	C262.814545,344.213959 263.428864,274.831329 261.879272,272.413605 
	C248.909271,282.435883 238.009171,294.524567 226.361252,306.846619 
M222.682251,350.969330 
	C219.484116,349.817810 216.476562,348.019501 212.174149,347.672668 
	C217.627182,361.498352 224.448013,373.843842 231.732437,386.514221 
	C240.004227,379.622375 247.157913,372.425629 254.397217,363.863586 
	C243.555298,359.447540 233.478500,355.343140 222.682251,350.969330 
z"/>
<path fill="#000000" opacity="1.000000" stroke="none" 
	d="
M805.471191,270.391541 
	C813.514832,277.846863 816.406433,288.946167 812.977783,298.326782 
	C809.262695,308.490753 799.346924,315.856964 788.800049,316.287720 
	C778.432922,316.711151 768.982117,308.435425 766.831543,296.880981 
	C765.385376,289.111481 765.933777,281.675110 771.144653,275.181091 
	C779.345093,264.961487 793.258789,262.897217 805.471191,270.391541 
z"/>
<path fill="#000000" opacity="1.000000" stroke="none" 
	d="
M629.778198,467.514191 
	C631.324219,467.240997 632.428101,467.873322 631.133545,468.818542 
	C628.682922,470.607880 625.831421,471.848175 622.691772,473.565277 
	C622.275879,467.624390 627.794434,469.999908 629.778198,467.514191 
z"/>
</svg>
